<svg width="521" height="352" viewBox="0 0 521 352" fill="none" xmlns="http://www.w3.org/2000/svg">
<path d="M34.6803 74.1176C38.2659 74.1176 41.8514 73.5547 45.437 72.429V83.4984C43.811 84.2072 41.7055 84.7909 39.1206 85.2495C36.5773 85.7498 33.9298 86 31.1781 86C17.2528 86 10.2901 78.662 10.2901 63.9862V26.713H0.846741V20.209L10.978 14.8306L15.9812 0.196533H25.0493V15.5811H44.7491V26.713H25.0493V63.7361C25.0493 67.28 25.9249 69.9066 27.6759 71.616C29.4687 73.2837 31.8035 74.1176 34.6803 74.1176Z" fill="white"/>
<path d="M94.405 14.3303C97.3652 14.3303 99.8042 14.5388 101.722 14.9557L100.284 28.6517C98.199 28.1514 96.031 27.9013 93.7796 27.9013C87.9009 27.9013 83.1271 29.8191 79.4582 33.6549C75.8309 37.4906 74.0173 42.4729 74.0173 48.6017V84.7492H59.3206V15.5811H70.8278L72.7665 27.7762H73.517C75.8101 23.6486 78.7911 20.3758 82.46 17.9576C86.1707 15.5394 90.1523 14.3303 94.405 14.3303Z" fill="white"/>
<path d="M104.099 15.5811H120.108L134.18 54.793C136.306 60.3798 137.724 65.6331 138.432 70.5528H138.933C139.308 68.2597 139.996 65.4872 140.996 62.2352C141.997 58.9414 147.292 43.3901 156.881 15.5811H172.766L143.185 93.9424C137.807 108.326 128.843 115.518 116.294 115.518C113.042 115.518 98.5428 112.012 86.8992 89.4066H99.7072C106.693 98.0393 111.52 103.573 114.355 103.573C121.443 103.573 126.425 99.4667 129.302 91.2532L131.866 84.7492L104.099 15.5811Z" fill="white"/>
<path d="M86.2564 145.81C89.2457 138.529 85.5337 132.751 75.1206 128.476L79.725 117.26C85.0099 119.43 89.2862 120.156 92.554 119.439C95.877 118.699 98.2858 116.509 99.7805 112.868L107.278 94.6059C109.785 88.499 113.739 84.8845 119.14 83.7624C124.596 82.6173 131.572 83.7885 140.067 87.276L135.68 97.9632C131.136 96.3268 127.509 95.9128 124.799 96.7213C122.143 97.5067 120.157 99.5044 118.839 102.714L111.679 120.155C108.481 127.945 102.086 130.763 92.4946 128.61L92.2053 129.314C100.591 134.404 103.169 140.883 99.939 148.752L92.731 166.309C91.4131 169.519 91.4149 172.356 92.7364 174.82C94.0579 177.284 96.9536 179.479 101.423 181.405L97.0118 192.151C88.0009 188.36 82.1177 184.138 79.3622 179.485C76.6298 174.886 76.6377 169.24 79.3859 162.546L86.2564 145.81ZM143.155 190.235C133.329 186.201 127.025 180.274 124.243 172.453C121.516 164.609 122.355 155.324 126.758 144.597C131.242 133.675 137.352 126.371 145.086 122.685C152.86 119.014 161.797 119.253 171.897 123.399C178.748 126.211 184.391 130.015 188.827 134.81L180.102 144.196C175.201 139.531 170.852 136.419 167.055 134.86C155.819 130.248 147.14 135.399 141.017 150.314C138.028 157.595 137.167 163.646 138.436 168.467C139.76 173.265 143.123 176.773 148.526 178.991C154.672 181.514 161.112 182.374 167.846 181.57L162.904 193.608C159.843 194.044 156.775 193.997 153.699 193.466C150.663 192.951 147.148 191.874 143.155 190.235ZM217.625 219.435L218.578 209.259L218.108 209.067C213.353 211.735 209.093 213.142 205.327 213.289C201.578 213.396 197.217 212.429 192.245 210.388C185.864 207.769 181.58 203.997 179.393 199.074C177.245 194.166 177.464 188.561 180.052 182.258C182.8 175.564 187.359 171.535 193.729 170.17C200.099 168.805 208.437 170.056 218.744 173.921L230.104 178.173L231.527 174.709C233.23 170.559 233.521 167.065 232.4 164.225C231.333 161.363 228.764 159.096 224.693 157.425C221.366 156.059 217.974 155.238 214.519 154.963C211.064 154.689 207.654 154.638 204.289 154.812L203.876 143.115C208.154 142.721 212.581 142.915 217.155 143.695C221.746 144.436 225.901 145.569 229.62 147.096C237.88 150.487 243.365 154.843 246.075 160.165C248.824 165.502 248.616 172.026 245.45 179.738L227.49 223.485L217.625 219.435ZM200.93 201.603C205.941 203.66 210.524 203.917 214.679 202.375C218.89 200.81 222.032 197.503 224.105 192.453L226.419 186.816L217.936 183.745C211.341 181.312 206.155 180.463 202.376 181.199C198.652 181.912 195.971 184.265 194.332 188.258C193.142 191.155 193.079 193.759 194.143 196.072C195.223 198.345 197.485 200.188 200.93 201.603ZM275.042 231.342C278.408 232.724 281.992 233.578 285.792 233.903L281.525 244.297C279.726 244.335 277.524 244.072 274.92 243.506C272.339 242.995 269.757 242.21 267.173 241.149C254.098 235.781 250.389 226.207 256.046 212.428L270.414 177.43L261.547 173.79L264.054 167.683L275.64 166.538L285.979 154.726L294.493 158.222L288.563 172.667L307.06 180.261L302.769 190.713L284.272 183.119L270 217.882C268.634 221.209 268.444 224.013 269.429 226.293C270.47 228.55 272.34 230.233 275.042 231.342ZM319.787 262.749C309.961 258.715 303.657 252.788 300.875 244.967C298.148 237.123 298.987 227.838 303.39 217.111C307.874 206.189 313.984 198.885 321.718 195.199C329.492 191.529 338.429 191.767 348.529 195.913C355.38 198.726 361.023 202.529 365.459 207.324L356.734 216.71C351.833 212.045 347.484 208.933 343.687 207.374C332.451 202.762 323.772 207.913 317.649 222.828C314.66 230.109 313.799 236.16 315.068 240.981C316.392 245.779 319.755 249.287 325.158 251.505C331.304 254.028 337.744 254.888 344.478 254.084L339.536 266.122C336.475 266.558 333.407 266.511 330.331 265.98C327.294 265.465 323.78 264.388 319.787 262.749ZM410.757 298.724L396.899 293.034L413.292 253.104C415.349 248.093 415.866 243.937 414.843 240.635C413.859 237.349 411.175 234.806 406.79 233.006C400.997 230.628 396.014 230.618 391.844 232.977C387.728 235.313 383.999 240.552 380.656 248.695L367.422 280.933L353.622 275.267L391.133 183.898L404.932 189.563L395.41 212.758C393.883 216.477 392.017 220.354 389.811 224.389L390.692 224.75C393.857 222.39 397.457 221.032 401.491 220.675C405.565 220.335 409.833 221.081 414.296 222.913C430.033 229.374 434.648 240.531 428.139 256.386L410.757 298.724ZM446.8 314.893C444.292 321 440.495 324.678 435.407 325.929C430.358 327.196 423.531 326.108 414.926 322.667L419.337 311.921C423.072 313.409 426.283 313.835 428.968 313.199C431.638 312.602 433.712 310.503 435.19 306.901L441.506 291.517C443.451 286.78 445.991 283.545 449.126 281.814C452.262 280.082 456.406 279.793 461.559 280.948L461.848 280.243C453.51 275.036 450.94 268.537 454.138 260.747L461.298 243.307C462.616 240.097 462.704 237.32 461.562 234.975C460.476 232.608 457.819 230.442 453.593 228.479L457.981 217.792C466.711 221.376 472.356 225.454 474.915 230.027C477.53 234.578 477.44 240.259 474.643 247.07L467.724 263.923C466.117 267.838 466.209 271.123 468.001 273.78C469.831 276.453 473.193 278.794 478.086 280.803L473.482 292.018C468.667 290.041 464.641 289.372 461.406 290.011C458.225 290.627 455.824 292.911 454.2 296.865L446.8 314.893Z" fill="#E3118F"/>
<path d="M105.147 96.1641C109.417 100.096 111.246 106.256 120.488 102.596C129.73 98.9362 129.608 112.196 126.306 113.532C111.856 119.379 102.622 111.066 95.5275 102.141C88.433 93.2167 101.604 92.9025 105.147 96.1641Z" fill="white"/>
</svg>
